<svg width="179" height="53" viewBox="0 0 179 53" fill="none" xmlns="http://www.w3.org/2000/svg">
<g clip-path="url(#clip0_33_35)">
<path d="M172.632 53H6.2703C2.81361 53 0 50.1804 0 46.7288V6.26195C0 2.809 2.81361 0 6.2703 0H172.632C176.087 0 179 2.809 179 6.26195V46.7288C179 50.1804 176.087 53 172.632 53Z" fill="#A6A6A6"/>
<path d="M177.716 46.7301C177.716 49.5338 175.444 51.8049 172.633 51.8049H6.27028C3.46065 51.8049 1.18005 49.5338 1.18005 46.7301V6.26063C1.18005 3.45825 3.46065 1.17925 6.27028 1.17925H172.632C175.444 1.17925 177.715 3.45825 177.715 6.26063L177.716 46.7301Z" fill="black"/>
<path d="M39.9474 26.2138C39.909 21.9433 43.4466 19.8657 43.6083 19.769C41.6048 16.85 38.4995 16.4512 37.4083 16.4194C34.8002 16.1451 32.2703 17.9789 30.9418 17.9789C29.5867 17.9789 27.5407 16.4459 25.3357 16.491C22.4983 16.5347 19.8437 18.1764 18.3879 20.7257C15.3833 25.9236 17.6241 33.5623 20.5027 37.7638C21.9427 39.8216 23.6253 42.1191 25.8277 42.0383C27.9823 41.9495 28.7871 40.6656 31.3873 40.6656C33.9635 40.6656 34.7193 42.0383 36.9654 41.9866C39.2778 41.9495 40.7337 39.9196 42.1233 37.8433C43.7873 35.4848 44.4556 33.1621 44.4821 33.0429C44.4277 33.0243 39.9912 31.3323 39.9474 26.2138Z" fill="white"/>
<path d="M35.7045 13.6555C36.8633 12.2072 37.6562 10.237 37.4361 8.23753C35.7588 8.31173 33.6612 9.3969 32.4533 10.8133C31.3846 12.0615 30.4299 14.1073 30.6766 16.0312C32.5607 16.1716 34.4952 15.0812 35.7045 13.6555Z" fill="white"/>
<path d="M71.1293 41.7428H68.1181L66.4687 36.5634H60.7354L59.1642 41.7428H56.2325L61.9128 24.1097H65.4212L71.1293 41.7428ZM65.9715 34.3904L64.4798 29.786C64.322 29.3156 64.0263 28.2079 63.5901 26.4642H63.5371C63.3634 27.2142 63.0836 28.3219 62.6991 29.786L61.2339 34.3904H65.9715Z" fill="white"/>
<path d="M85.737 35.2291C85.737 37.3915 85.1523 39.1008 83.9828 40.3555C82.9353 41.4725 81.6346 42.0303 80.0819 42.0303C78.406 42.0303 77.202 41.4288 76.4688 40.2257H76.4158V46.9236H73.5889V33.2138C73.5889 31.8543 73.5531 30.4591 73.4841 29.0281H75.9702L76.128 31.0434H76.1811C77.1238 29.525 78.5545 28.7671 80.4744 28.7671C81.9754 28.7671 83.2284 29.3593 84.2308 30.5452C85.2358 31.7324 85.737 33.2933 85.737 35.2291ZM82.8571 35.3324C82.8571 34.0949 82.5787 33.0747 82.0191 32.2717C81.4079 31.4343 80.5871 31.0156 79.5582 31.0156C78.8608 31.0156 78.227 31.2488 77.6608 31.7086C77.0933 32.1723 76.722 32.7779 76.5483 33.5278C76.4608 33.8776 76.4171 34.1638 76.4171 34.389V36.5091C76.4171 37.4339 76.7008 38.2143 77.2683 38.8517C77.8358 39.489 78.573 39.807 79.48 39.807C80.5447 39.807 81.3734 39.3962 81.9661 38.5774C82.5601 37.7572 82.8571 36.676 82.8571 35.3324Z" fill="white"/>
<path d="M100.371 35.2291C100.371 37.3915 99.7866 39.1008 98.6158 40.3555C97.5696 41.4725 96.2689 42.0303 94.7162 42.0303C93.0403 42.0303 91.8363 41.4288 91.1044 40.2257H91.0514V46.9236H88.2245V33.2138C88.2245 31.8543 88.1887 30.4591 88.1198 29.0281H90.6059L90.7637 31.0434H90.8167C91.7581 29.525 93.1888 28.7671 95.11 28.7671C96.6097 28.7671 97.8627 29.3593 98.8677 30.5452C99.8688 31.7324 100.371 33.2933 100.371 35.2291ZM97.4914 35.3324C97.4914 34.0949 97.2116 33.0747 96.6521 32.2717C96.0408 31.4343 95.2227 31.0156 94.1925 31.0156C93.4937 31.0156 92.8613 31.2488 92.2938 31.7086C91.7263 32.1723 91.3563 32.7779 91.1826 33.5278C91.0965 33.8776 91.0514 34.1638 91.0514 34.389V36.5091C91.0514 37.4339 91.3351 38.2143 91.9 38.8517C92.4675 39.4877 93.2047 39.807 94.1143 39.807C95.179 39.807 96.0077 39.3962 96.6004 38.5774C97.1944 37.7572 97.4914 36.676 97.4914 35.3324Z" fill="white"/>
<path d="M116.733 36.7979C116.733 38.2978 116.212 39.5181 115.166 40.4602C114.016 41.4897 112.416 42.0038 110.36 42.0038C108.461 42.0038 106.939 41.6381 105.786 40.9054L106.441 38.5509C107.682 39.3008 109.044 39.6771 110.528 39.6771C111.593 39.6771 112.421 39.436 113.017 38.9563C113.609 38.4767 113.905 37.8327 113.905 37.0298C113.905 36.3143 113.661 35.7114 113.172 35.2225C112.685 34.7336 111.872 34.2791 110.737 33.8591C107.648 32.7076 106.105 31.0209 106.105 28.8029C106.105 27.3533 106.646 26.1648 107.729 25.2399C108.808 24.3138 110.248 23.8513 112.049 23.8513C113.654 23.8513 114.988 24.1309 116.053 24.6887L115.346 26.9916C114.352 26.451 113.227 26.1807 111.969 26.1807C110.975 26.1807 110.198 26.4258 109.641 26.9134C109.17 27.3493 108.934 27.8807 108.934 28.51C108.934 29.207 109.203 29.7834 109.744 30.2365C110.215 30.6552 111.07 31.1084 112.311 31.5973C113.829 32.2081 114.945 32.9223 115.662 33.7411C116.377 34.5573 116.733 35.5789 116.733 36.7979Z" fill="white"/>
<path d="M126.08 31.1481H122.964V37.3213C122.964 38.8914 123.513 39.6758 124.613 39.6758C125.118 39.6758 125.537 39.6321 125.869 39.5446L125.947 41.6898C125.39 41.8978 124.657 42.0025 123.749 42.0025C122.632 42.0025 121.76 41.662 121.13 40.9822C120.503 40.3012 120.187 39.159 120.187 37.5545V31.1454H118.331V29.0254H120.187V26.6974L122.964 25.86V29.0254H126.08V31.1481Z" fill="white"/>
<path d="M140.138 35.2808C140.138 37.2352 139.579 38.8397 138.462 40.0945C137.292 41.3864 135.738 42.0303 133.8 42.0303C131.934 42.0303 130.447 41.4116 129.339 40.174C128.23 38.9365 127.676 37.3743 127.676 35.4915C127.676 33.5212 128.246 31.9073 129.39 30.6526C130.532 29.3965 132.073 28.7684 134.01 28.7684C135.877 28.7684 137.379 29.3872 138.513 30.6261C139.597 31.8278 140.138 33.3794 140.138 35.2808ZM137.205 35.3722C137.205 34.1996 136.955 33.1939 136.447 32.3552C135.854 31.3402 135.007 30.8341 133.909 30.8341C132.773 30.8341 131.91 31.3416 131.317 32.3552C130.809 33.1952 130.559 34.2168 130.559 35.4252C130.559 36.5978 130.809 37.6035 131.317 38.4409C131.928 39.4559 132.782 39.962 133.884 39.962C134.963 39.962 135.811 39.4453 136.422 38.4144C136.943 37.5598 137.205 36.5435 137.205 35.3722Z" fill="white"/>
<path d="M149.327 31.5125C149.047 31.4608 148.749 31.4343 148.436 31.4343C147.442 31.4343 146.673 31.8093 146.132 32.5605C145.661 33.223 145.425 34.0604 145.425 35.0714V41.7428H142.599L142.626 33.0322C142.626 31.5668 142.59 30.2325 142.52 29.0294H144.982L145.085 31.4621H145.164C145.462 30.6261 145.933 29.9529 146.577 29.4481C147.207 28.9936 147.887 28.7671 148.62 28.7671C148.882 28.7671 149.118 28.7856 149.327 28.8187V31.5125Z" fill="white"/>
<path d="M161.97 34.7839C161.97 35.2901 161.937 35.7167 161.866 36.0652H153.386C153.419 37.3213 153.829 38.2819 154.616 38.9444C155.331 39.5367 156.255 39.8335 157.39 39.8335C158.646 39.8335 159.791 39.6334 160.822 39.2319L161.264 41.1929C160.061 41.7176 158.639 41.9786 156.999 41.9786C155.026 41.9786 153.477 41.3983 152.35 40.2389C151.226 39.0795 150.662 37.5227 150.662 35.5696C150.662 33.6523 151.186 32.0557 152.235 30.7824C153.333 29.4229 154.816 28.7432 156.683 28.7432C158.517 28.7432 159.905 29.4229 160.848 30.7824C161.595 31.8623 161.97 33.1979 161.97 34.7839ZM159.274 34.0512C159.293 33.2138 159.109 32.4903 158.725 31.8795C158.236 31.0938 157.484 30.7016 156.473 30.7016C155.548 30.7016 154.797 31.0845 154.222 31.853C153.752 32.4638 153.472 33.1965 153.386 34.0498L159.274 34.0512Z" fill="white"/>
<path d="M65.0367 13.2619C65.0367 14.8214 64.5686 15.9954 63.6338 16.7838C62.768 17.5112 61.5375 17.8756 59.9438 17.8756C59.1535 17.8756 58.4773 17.8411 57.9111 17.7722V9.25115C58.6497 9.1319 59.4452 9.07095 60.3044 9.07095C61.8226 9.07095 62.9669 9.40087 63.7386 10.0607C64.6031 10.8067 65.0367 11.8733 65.0367 13.2619ZM63.5715 13.3003C63.5715 12.2894 63.3037 11.5142 62.768 10.9736C62.2323 10.4344 61.45 10.1641 60.4198 10.1641C59.9822 10.1641 59.6096 10.1932 59.3007 10.2542V16.7321C59.4717 16.7586 59.7847 16.7705 60.2395 16.7705C61.3029 16.7705 62.1236 16.475 62.7017 15.8841C63.2798 15.2931 63.5715 14.4319 63.5715 13.3003Z" fill="white"/>
<path d="M72.8053 14.624C72.8053 15.5847 72.5308 16.3717 71.9819 16.9891C71.4064 17.6238 70.644 17.9405 69.692 17.9405C68.7745 17.9405 68.0439 17.6371 67.4989 17.0276C66.9553 16.4194 66.6835 15.6522 66.6835 14.7274C66.6835 13.7601 66.9632 12.9665 67.5254 12.3503C68.0876 11.7342 68.8434 11.4255 69.7954 11.4255C70.713 11.4255 71.4502 11.7289 72.0084 12.3371C72.5388 12.928 72.8053 13.6912 72.8053 14.624ZM71.364 14.6691C71.364 14.0927 71.2394 13.5985 70.9914 13.1864C70.6997 12.6882 70.2847 12.4391 69.745 12.4391C69.1868 12.4391 68.7625 12.6882 68.4708 13.1864C68.2215 13.5985 68.0982 14.1007 68.0982 14.6943C68.0982 15.2706 68.2229 15.7649 68.4708 16.1769C68.7718 16.6751 69.1908 16.9242 69.7318 16.9242C70.2621 16.9242 70.6785 16.6712 70.9781 16.1637C71.2354 15.7437 71.364 15.2455 71.364 14.6691Z" fill="white"/>
<path d="M83.2217 11.5527L81.266 17.7987H79.9931L79.183 15.0864C78.9774 14.4094 78.8104 13.7363 78.6804 13.0685H78.6552C78.5346 13.7548 78.3675 14.4266 78.1527 15.0864L77.2922 17.7987H76.0047L74.1656 11.5527H75.5937L76.3004 14.522C76.4714 15.2242 76.612 15.8934 76.7247 16.5267H76.7499C76.8533 16.0047 77.0243 15.3395 77.2657 14.5352L78.1527 11.554H79.285L80.135 14.4716C80.3405 15.1832 80.5075 15.8682 80.6362 16.528H80.6746C80.7688 15.8854 80.9106 15.2004 81.0989 14.4716L81.8573 11.554H83.2217V11.5527Z" fill="white"/>
<path d="M90.4255 17.7987H89.0359V14.2212C89.0359 13.1188 88.6169 12.5676 87.7763 12.5676C87.3639 12.5676 87.0311 12.7187 86.7726 13.0221C86.5167 13.3255 86.3867 13.6833 86.3867 14.0927V17.7974H84.9972V13.3375C84.9972 12.7889 84.9799 12.194 84.9468 11.55H86.168L86.2329 12.5266H86.2714C86.4331 12.2231 86.6745 11.9727 86.9914 11.7726C87.3679 11.5394 87.7896 11.4215 88.251 11.4215C88.8344 11.4215 89.3197 11.6097 89.7055 11.9873C90.1855 12.4497 90.4255 13.14 90.4255 14.0569V17.7987Z" fill="white"/>
<path d="M94.2574 17.7987H92.8691V8.6867H94.2574V17.7987Z" fill="white"/>
<path d="M102.438 14.624C102.438 15.5847 102.164 16.3717 101.615 16.9891C101.039 17.6238 100.276 17.9405 99.3251 17.9405C98.4062 17.9405 97.6756 17.6371 97.132 17.0276C96.5883 16.4194 96.3165 15.6522 96.3165 14.7274C96.3165 13.7601 96.5963 12.9665 97.1585 12.3503C97.7207 11.7342 98.4765 11.4255 99.4272 11.4255C100.346 11.4255 101.082 11.7289 101.641 12.3371C102.172 12.928 102.438 13.6912 102.438 14.624ZM100.996 14.6691C100.996 14.0927 100.871 13.5985 100.623 13.1864C100.333 12.6882 99.9164 12.4391 99.3781 12.4391C98.8185 12.4391 98.3943 12.6882 98.1039 13.1864C97.8546 13.5985 97.7313 14.1007 97.7313 14.6943C97.7313 15.2706 97.8559 15.7649 98.1039 16.1769C98.4049 16.6751 98.8239 16.9242 99.3648 16.9242C99.8952 16.9242 100.31 16.6712 100.61 16.1637C100.868 15.7437 100.996 15.2455 100.996 14.6691Z" fill="white"/>
<path d="M109.163 17.7987H107.916L107.812 17.0793H107.774C107.347 17.653 106.738 17.9405 105.948 17.9405C105.358 17.9405 104.881 17.751 104.521 17.3747C104.195 17.0329 104.032 16.6076 104.032 16.1027C104.032 15.3395 104.35 14.7579 104.991 14.3551C105.63 13.9523 106.529 13.7548 107.686 13.7641V13.6475C107.686 12.8247 107.254 12.4139 106.388 12.4139C105.772 12.4139 105.228 12.569 104.759 12.8764L104.476 11.9648C105.057 11.6057 105.774 11.4255 106.62 11.4255C108.254 11.4255 109.073 12.2867 109.073 14.0092V16.3094C109.073 16.9335 109.104 17.4304 109.163 17.7987ZM107.721 15.6522V14.689C106.188 14.6625 105.422 15.0825 105.422 15.9477C105.422 16.2737 105.509 16.5175 105.688 16.6804C105.867 16.8434 106.095 16.9242 106.367 16.9242C106.672 16.9242 106.957 16.8275 107.217 16.6354C107.478 16.4419 107.639 16.1968 107.698 15.896C107.713 15.8285 107.721 15.7463 107.721 15.6522Z" fill="white"/>
<path d="M117.059 17.7987H115.826L115.761 16.7957H115.723C115.329 17.5589 114.658 17.9405 113.715 17.9405C112.962 17.9405 112.335 17.645 111.838 17.0541C111.341 16.4631 111.093 15.6959 111.093 14.7539C111.093 13.7429 111.362 12.924 111.903 12.2986C112.427 11.7156 113.068 11.4241 113.832 11.4241C114.671 11.4241 115.259 11.7064 115.593 12.2721H115.619V8.6867H117.01V16.116C117.01 16.7241 117.026 17.2846 117.059 17.7987ZM115.619 15.1646V14.1232C115.619 13.943 115.606 13.7972 115.581 13.6859C115.503 13.352 115.334 13.0711 115.078 12.8445C114.82 12.618 114.508 12.504 114.149 12.504C113.63 12.504 113.225 12.7094 112.926 13.1215C112.631 13.5335 112.481 14.0596 112.481 14.7022C112.481 15.3196 112.623 15.8205 112.908 16.2061C113.209 16.6168 113.615 16.8222 114.122 16.8222C114.579 16.8222 114.943 16.6513 115.22 16.3081C115.488 15.9914 115.619 15.6098 115.619 15.1646Z" fill="white"/>
<path d="M128.944 14.624C128.944 15.5847 128.669 16.3717 128.12 16.9891C127.545 17.6238 126.784 17.9405 125.83 17.9405C124.914 17.9405 124.184 17.6371 123.637 17.0276C123.094 16.4194 122.822 15.6522 122.822 14.7274C122.822 13.7601 123.102 12.9665 123.664 12.3503C124.226 11.7342 124.982 11.4255 125.935 11.4255C126.851 11.4255 127.59 11.7289 128.147 12.3371C128.677 12.928 128.944 13.6912 128.944 14.624ZM127.504 14.6691C127.504 14.0927 127.379 13.5985 127.131 13.1864C126.838 12.6882 126.424 12.4391 125.883 12.4391C125.326 12.4391 124.902 12.6882 124.609 13.1864C124.36 13.5985 124.237 14.1007 124.237 14.6943C124.237 15.2706 124.361 15.7649 124.609 16.1769C124.91 16.6751 125.329 16.9242 125.87 16.9242C126.4 16.9242 126.818 16.6712 127.118 16.1637C127.374 15.7437 127.504 15.2455 127.504 14.6691Z" fill="white"/>
<path d="M136.415 17.7987H135.027V14.2212C135.027 13.1188 134.608 12.5676 133.766 12.5676C133.354 12.5676 133.021 12.7187 132.764 13.0221C132.506 13.3255 132.378 13.6833 132.378 14.0927V17.7974H130.987V13.3375C130.987 12.7889 130.971 12.194 130.938 11.55H132.158L132.223 12.5266H132.261C132.424 12.2231 132.666 11.9727 132.981 11.7726C133.359 11.5394 133.779 11.4215 134.242 11.4215C134.824 11.4215 135.309 11.6097 135.695 11.9873C136.177 12.4497 136.415 13.14 136.415 14.0569V17.7987Z" fill="white"/>
<path d="M145.767 12.5928H144.237V15.627C144.237 16.3982 144.509 16.7838 145.047 16.7838C145.296 16.7838 145.503 16.7626 145.666 16.7188L145.702 17.7722C145.427 17.8756 145.067 17.9272 144.623 17.9272C144.074 17.9272 143.647 17.7603 143.338 17.4264C143.028 17.0925 142.874 16.5307 142.874 15.7423V12.5928H141.96V11.5527H142.874V10.4079L144.235 9.99712V11.5513H145.766L145.767 12.5928Z" fill="white"/>
<path d="M153.123 17.7987H151.732V14.2477C151.732 13.1281 151.313 12.5676 150.474 12.5676C149.83 12.5676 149.389 12.8922 149.148 13.5415C149.107 13.678 149.083 13.8449 149.083 14.041V17.7974H147.695V8.6867H149.083V12.451H149.11C149.547 11.766 150.174 11.4241 150.987 11.4241C151.563 11.4241 152.039 11.6123 152.416 11.9899C152.887 12.4603 153.123 13.1599 153.123 14.0847V17.7987Z" fill="white"/>
<path d="M160.711 14.3802C160.711 14.6293 160.693 14.8387 160.66 15.0096H156.492C156.511 15.6271 156.71 16.0974 157.096 16.4234C157.448 16.7149 157.903 16.8606 158.46 16.8606C159.077 16.8606 159.639 16.7626 160.145 16.5652L160.363 17.5297C159.77 17.7868 159.073 17.9153 158.265 17.9153C157.297 17.9153 156.535 17.6305 155.983 17.0607C155.429 16.491 155.155 15.7264 155.155 14.7671C155.155 13.8251 155.41 13.0407 155.926 12.4153C156.465 11.7475 157.192 11.4136 158.111 11.4136C159.01 11.4136 159.693 11.7475 160.155 12.4153C160.527 12.9453 160.711 13.6011 160.711 14.3802ZM159.386 14.0212C159.396 13.6091 159.305 13.254 159.116 12.9545C158.875 12.569 158.508 12.3755 158.011 12.3755C157.557 12.3755 157.187 12.5637 156.905 12.9413C156.674 13.2421 156.537 13.6011 156.492 14.0212H159.386Z" fill="white"/>
</g>
<defs>
<clipPath id="clip0_33_35">
<rect width="179" height="53" fill="white"/>
</clipPath>
</defs>
</svg>
