<svg width="12" height="12" viewBox="0 0 12 12" fill="none" xmlns="http://www.w3.org/2000/svg">
<path d="M6.70998 11.7141L11.71 6.71409C11.801 6.61899 11.8724 6.50684 11.92 6.38409C12.02 6.14063 12.02 5.86755 11.92 5.62409C11.8724 5.50134 11.801 5.3892 11.71 5.29409L6.70998 0.294091C6.61674 0.200853 6.50605 0.126892 6.38423 0.076432C6.26241 0.0259717 6.13184 -2.56287e-07 5.99998 -2.6205e-07C5.73368 -2.73691e-07 5.47829 0.105788 5.28998 0.294091C5.10168 0.482395 4.99589 0.73779 4.99589 1.00409C4.99589 1.27039 5.10168 1.52579 5.28998 1.71409L8.58998 5.00409L0.999982 5.00409C0.734765 5.00409 0.48041 5.10945 0.292874 5.29698C0.105338 5.48452 -1.83707e-05 5.73887 -1.83823e-05 6.00409C-1.83939e-05 6.26931 0.105338 6.52366 0.292874 6.7112C0.48041 6.89873 0.734765 7.00409 0.999982 7.00409L8.58998 7.00409L5.28998 10.2941C5.19625 10.3871 5.12186 10.4977 5.07109 10.6195C5.02032 10.7414 4.99418 10.8721 4.99418 11.0041C4.99418 11.1361 5.02032 11.2668 5.07109 11.3887C5.12186 11.5105 5.19625 11.6211 5.28998 11.7141C5.38294 11.8078 5.49354 11.8822 5.6154 11.933C5.73726 11.9838 5.86797 12.0099 5.99998 12.0099C6.13199 12.0099 6.2627 11.9838 6.38456 11.933C6.50642 11.8822 6.61702 11.8078 6.70998 11.7141Z" fill="black"/>
</svg>
