<svg width="86" height="13" viewBox="0 0 86 13" fill="none" xmlns="http://www.w3.org/2000/svg">
<path d="M4.795 10.1434L7 8.84342L9.205 10.1605L8.6275 7.69737L10.57 6.05526L8.015 5.83289L7 3.50658L5.985 5.81579L3.43 6.03816L5.3725 7.69737L4.795 10.1434ZM2.6775 13L3.815 8.19342L0 4.96053L5.04 4.53289L7 0L8.96 4.53289L14 4.96053L10.185 8.19342L11.3225 13L7 10.4513L2.6775 13Z" fill="#FFC637"/>
<path d="M22.795 10.1434L25 8.84342L27.205 10.1605L26.6275 7.69737L28.57 6.05526L26.015 5.83289L25 3.50658L23.985 5.81579L21.43 6.03816L23.3725 7.69737L22.795 10.1434ZM20.6775 13L21.815 8.19342L18 4.96053L23.04 4.53289L25 0L26.96 4.53289L32 4.96053L28.185 8.19342L29.3225 13L25 10.4513L20.6775 13Z" fill="#FFC637"/>
<path d="M40.795 10.1434L43 8.84342L45.205 10.1605L44.6275 7.69737L46.57 6.05526L44.015 5.83289L43 3.50658L41.985 5.81579L39.43 6.03816L41.3725 7.69737L40.795 10.1434ZM38.6775 13L39.815 8.19342L36 4.96053L41.04 4.53289L43 0L44.96 4.53289L50 4.96053L46.185 8.19342L47.3225 13L43 10.4513L38.6775 13Z" fill="#FFC637"/>
<path d="M58.795 10.1434L61 8.84342L63.205 10.1605L62.6275 7.69737L64.57 6.05526L62.015 5.83289L61 3.50658L59.985 5.81579L57.43 6.03816L59.3725 7.69737L58.795 10.1434ZM56.6775 13L57.815 8.19342L54 4.96053L59.04 4.53289L61 0L62.96 4.53289L68 4.96053L64.185 8.19342L65.3225 13L61 10.4513L56.6775 13Z" fill="#FFC637"/>
<path d="M76.795 10.1434L79 8.84342L81.205 10.1605L80.6275 7.69737L82.57 6.05526L80.015 5.83289L79 3.50658L77.985 5.81579L75.43 6.03816L77.3725 7.69737L76.795 10.1434ZM74.6775 13L75.815 8.19342L72 4.96053L77.04 4.53289L79 0L80.96 4.53289L86 4.96053L82.185 8.19342L83.3225 13L79 10.4513L74.6775 13Z" fill="#D9D9D9"/>
</svg>
